<?xml version="1.0" encoding="utf-8"?><svg width="208" height="200" viewBox="0 0 208 200" xmlns="http://www.w3.org/2000/svg" xmlns:xlink="http://www.w3.org/1999/xlink"><svg viewBox="0 0 48 48" width="48" height="48" id="fast-food" x="160"><path d="M34.125 13.969L33.496 17H39v2h-1.158l-1.801 17H27l-1.82-17h-1.158v-2h7.182l1.203-5H39v1.969h-4.875zM14.5 36h7c1.649 0 3-1.35 3-3h-13c0 1.65 1.351 3 3 3zm3.501-11C13.5 25 11.5 26.779 11.5 28.979h13c0-2.2-1.998-3.979-6.499-3.979zm6.499 5.021h-13c-.275 0-.5.225-.5.5v.979c0 .275.225.5.5.5h13c.275 0 .5-.225.5-.5v-.979a.5.5 0 0 0-.5-.5z"/></svg><svg viewBox="0 0 80 80" width="80" height="80" id="fb"><path fill="#8E8E8E" d="M30.3 33.2h4.1v-4c0-1.8 0-4.5 1.3-6.2 1.4-1.8 3.2-3 6.4-3 5.2 0 7.4.7 7.4.7l-1 6.1s-1.7-.5-3.3-.5c-1.6 0-3 .6-3 2.2v4.7h6.6l-.5 6h-6.1V60h-7.8V39.2h-4.1v-6"/></svg><svg viewBox="0 0 80 80" width="80" height="80" id="fb-ball" x="80"><path fill="#8E8E8E" d="M40 4C20.1 4 4 20.1 4 40s16.1 36 36 36 36-16.1 36-36S59.9 4 40 4zm7.9 29.9l-.4 5.4H42V58h-7V39.3h-3.7v-5.4H35v-3.7c0-1.6 0-4.1 1.2-5.6 1.2-1.6 2.9-2.7 5.8-2.7 4.7 0 6.7.7 6.7.7l-.9 5.5s-1.6-.4-3-.4-2.7.5-2.7 2v4.2h5.8z"/></svg><svg viewBox="0 0 80 80" width="80" height="80" id="google" y="80"><path d="M42.1 21H30.3c-5.3 0-10.2 4-10.2 8.6 0 4.7 3.6 8.6 9 8.6h1.1c-.3.7-.6 1.4-.6 2.2 0 1.3.7 2.4 1.6 3.3h-2c-6.5 0-11.6 4.2-11.6 8.5s5.5 6.9 12.1 6.9c7.4 0 11.6-4.2 11.6-8.5 0-3.4-1-5.5-4.1-7.6-1.1-.8-3.1-2.6-3.1-3.7 0-1.3.4-1.9 2.3-3.4s3.3-3.7 3.3-6.2c0-3-1.3-5.8-3.8-6.8h3.7l2.5-1.9zM38 49.8c.1.4.1.8.1 1.2 0 3.4-2.2 6.1-8.6 6.1-4.5 0-7.8-2.9-7.8-6.3s4-6.2 8.6-6.1c1.1 0 2 .2 2.9.5 2.5 1.7 4.3 2.7 4.8 4.6zM30.7 37c-3-.1-5.9-3.4-6.4-7.4s1.5-7 4.5-6.9c3 .1 5.9 3.3 6.4 7.3.6 3.9-1.5 7.1-4.5 7zM54 29.3V21h-2.7v8.3h-8.5v2.8h8.5v8.6H54v-8.6h8.5v-2.8z" fill="#8E8E8E"/></svg><svg viewBox="0 0 80 80" width="80" height="80" id="google-ball" x="80" y="80"><path fill="#8E8E8E" d="M37.5 32.7c.5 3.6-1.4 6.4-4.1 6.3-2.7-.1-5.3-3-5.8-6.6-.5-3.6 1.4-6.3 4.1-6.3 2.8.2 5.4 3.1 5.8 6.6zM33.1 46c-4.1 0-7.7 2.5-7.7 5.5 0 3.1 2.9 5.7 7 5.7 5.7 0 7.7-2.4 7.7-5.5 0-.4 0-.7-.1-1.1-.5-1.8-2-2.6-4.2-4.2-.9-.2-1.8-.3-2.7-.4zM76 40c0 19.9-16.1 36-36 36S4 59.9 4 40 20.1 4 40 4s36 16.1 36 36zM37.9 26.4h3.4l2.4-1.7H33.1c-4.7 0-9.2 3.6-9.2 7.8 0 4.2 3.2 7.7 8.1 7.7h1c-.3.6-.5 1.3-.5 2 0 1.2.6 2.1 1.4 2.9h-1.8c-5.9 0-10.4 3.7-10.4 7.6 0 3.8 5 6.2 10.8 6.2 6.7 0 10.4-3.8 10.4-7.6 0-3.1-.9-4.9-3.7-6.9-1-.7-2.8-2.3-2.8-3.3 0-1.1.3-1.7 2-3 1.8-1.4 3-3.3 3-5.5-.1-2.7-1.2-5.3-3.5-6.2zM62 32.2h-7.6v-7.5h-2.5v7.5h-7.6v2.5h7.6v7.7h2.5v-7.7H62v-2.5z"/></svg><svg viewBox="0 0 40 40" width="40" height="40" id="hamburger-black" x="160" y="96"><title>Element 1-black</title><path d="M0 0v40h40V0zm30 30H10v-2h20zm0-9H10v-2h20zm0-9H10v-2h20z" data-name="Ebene 1"/></svg><svg viewBox="0 0 48 48" width="48" height="48" id="hamburger-gray" x="160" y="48"><path fill="#8E8E8E" d="M1 22h46v4H1v-4zM1 8v4h46V8H1zm0 32h46v-4H1v4z"/></svg><svg viewBox="0 0 40 40" width="40" height="40" id="hamburger-white" y="160"><defs><style>.hcls-1{fill:#fff}</style></defs><title>hamburger-white</title><g id="hEbene_2" data-name="Ebene 2"><path class="hcls-1" d="M0 0v40h40V0zm30 30H10v-2h20zm0-9H10v-2h20zm0-9H10v-2h20z" id="hEbene_1-2" data-name="Ebene 1"/></g></svg><svg viewBox="0 0 20 20" width="20" height="20" id="houzz" x="160" y="136"><path d="M4 10l6 3-6 3v-6zm6-3l6 3V4l-6 3zm0 13l6-3v-7l-6 3v7zm0-20L4 3v7l6-3V0z"/></svg></svg>