<?xml version="1.0" encoding="utf-8"?><svg width="1240" height="800" viewBox="0 0 1240 800" xmlns="http://www.w3.org/2000/svg" xmlns:xlink="http://www.w3.org/1999/xlink"><svg viewBox="0 0 48 48" width="48" height="48" id="fast-food" x="1120" y="110"><path d="M34.125 13.969L33.496 17H39v2h-1.158l-1.801 17H27l-1.82-17h-1.158v-2h7.182l1.203-5H39v1.969h-4.875zM14.5 36h7c1.649 0 3-1.35 3-3h-13c0 1.65 1.351 3 3 3zm3.501-11C13.5 25 11.5 26.779 11.5 28.979h13c0-2.2-1.998-3.979-6.499-3.979zm6.499 5.021h-13c-.275 0-.5.225-.5.5v.979c0 .275.225.5.5.5h13c.275 0 .5-.225.5-.5v-.979a.5.5 0 0 0-.5-.5z"/></svg><svg viewBox="0 0 80 80" width="80" height="80" id="fb" x="1040" y="110"><path fill="#8E8E8E" d="M30.3 33.2h4.1v-4c0-1.8 0-4.5 1.3-6.2 1.4-1.8 3.2-3 6.4-3 5.2 0 7.4.7 7.4.7l-1 6.1s-1.7-.5-3.3-.5c-1.6 0-3 .6-3 2.2v4.7h6.6l-.5 6h-6.1V60h-7.8V39.2h-4.1v-6"/></svg><svg viewBox="0 0 80 80" width="80" height="80" id="fb-ball" x="800" y="110"><path fill="#8E8E8E" d="M40 4C20.1 4 4 20.1 4 40s16.1 36 36 36 36-16.1 36-36S59.9 4 40 4zm7.9 29.9l-.4 5.4H42V58h-7V39.3h-3.7v-5.4H35v-3.7c0-1.6 0-4.1 1.2-5.6 1.2-1.6 2.9-2.7 5.8-2.7 4.7 0 6.7.7 6.7.7l-.9 5.5s-1.6-.4-3-.4-2.7.5-2.7 2v4.2h5.8z"/></svg><svg viewBox="0 0 80 80" width="80" height="80" id="google" x="880" y="110"><path d="M42.1 21H30.3c-5.3 0-10.2 4-10.2 8.6 0 4.7 3.6 8.6 9 8.6h1.1c-.3.7-.6 1.4-.6 2.2 0 1.3.7 2.4 1.6 3.3h-2c-6.5 0-11.6 4.2-11.6 8.5s5.5 6.9 12.1 6.9c7.4 0 11.6-4.2 11.6-8.5 0-3.4-1-5.5-4.1-7.6-1.1-.8-3.1-2.6-3.1-3.7 0-1.3.4-1.9 2.3-3.4s3.3-3.7 3.3-6.2c0-3-1.3-5.8-3.8-6.8h3.7l2.5-1.9zM38 49.8c.1.4.1.8.1 1.2 0 3.4-2.2 6.1-8.6 6.1-4.5 0-7.8-2.9-7.8-6.3s4-6.2 8.6-6.1c1.1 0 2 .2 2.9.5 2.5 1.7 4.3 2.7 4.8 4.6zM30.7 37c-3-.1-5.9-3.4-6.4-7.4s1.5-7 4.5-6.9c3 .1 5.9 3.3 6.4 7.3.6 3.9-1.5 7.1-4.5 7zM54 29.3V21h-2.7v8.3h-8.5v2.8h8.5v8.6H54v-8.6h8.5v-2.8z" fill="#8E8E8E"/></svg><svg viewBox="0 0 80 80" width="80" height="80" id="google-ball" x="960" y="110"><path fill="#8E8E8E" d="M37.5 32.7c.5 3.6-1.4 6.4-4.1 6.3-2.7-.1-5.3-3-5.8-6.6-.5-3.6 1.4-6.3 4.1-6.3 2.8.2 5.4 3.1 5.8 6.6zM33.1 46c-4.1 0-7.7 2.5-7.7 5.5 0 3.1 2.9 5.7 7 5.7 5.7 0 7.7-2.4 7.7-5.5 0-.4 0-.7-.1-1.1-.5-1.8-2-2.6-4.2-4.2-.9-.2-1.8-.3-2.7-.4zM76 40c0 19.9-16.1 36-36 36S4 59.9 4 40 20.1 4 40 4s36 16.1 36 36zM37.9 26.4h3.4l2.4-1.7H33.1c-4.7 0-9.2 3.6-9.2 7.8 0 4.2 3.2 7.7 8.1 7.7h1c-.3.6-.5 1.3-.5 2 0 1.2.6 2.1 1.4 2.9h-1.8c-5.9 0-10.4 3.7-10.4 7.6 0 3.8 5 6.2 10.8 6.2 6.7 0 10.4-3.8 10.4-7.6 0-3.1-.9-4.9-3.7-6.9-1-.7-2.8-2.3-2.8-3.3 0-1.1.3-1.7 2-3 1.8-1.4 3-3.3 3-5.5-.1-2.7-1.2-5.3-3.5-6.2zM62 32.2h-7.6v-7.5h-2.5v7.5h-7.6v2.5h7.6v7.7h2.5v-7.7H62v-2.5z"/></svg><svg viewBox="0 0 40 40" width="40" height="40" id="hamburger-black" x="840" y="190"><title>Element 1-black</title><path d="M0 0v40h40V0zm30 30H10v-2h20zm0-9H10v-2h20zm0-9H10v-2h20z" data-name="Ebene 1"/></svg><svg viewBox="0 0 48 48" width="48" height="48" id="hamburger-gray" x="1168" y="110"><path fill="#8E8E8E" d="M1 22h46v4H1v-4zM1 8v4h46V8H1zm0 32h46v-4H1v4z"/></svg><svg viewBox="0 0 40 40" width="40" height="40" id="hamburger-white" x="800" y="190"><defs><style>.hcls-1{fill:#fff}</style></defs><title>hamburger-white</title><g id="hEbene_2" data-name="Ebene 2"><path class="hcls-1" d="M0 0v40h40V0zm30 30H10v-2h20zm0-9H10v-2h20zm0-9H10v-2h20z" id="hEbene_1-2" data-name="Ebene 1"/></g></svg><svg viewBox="0 0 20 20" width="20" height="20" id="houzz" x="1216" y="110"><path d="M4 10l6 3-6 3v-6zm6-3l6 3V4l-6 3zm0 13l6-3v-7l-6 3v7zm0-20L4 3v7l6-3V0z"/></svg><svg data-name="Instagram w/circle" viewBox="0 0 19.19995 19.19995" width="19.19995" height="19.19995" id="instagram-ball" x="1216" y="130"><title>instagram-with-circle</title><path d="M13.498 6.651a1.656 1.656 0 0 0-.95-.949 2.766 2.766 0 0 0-.928-.172c-.527-.024-.685-.03-2.02-.03s-1.493.006-2.02.03a2.766 2.766 0 0 0-.929.172 1.656 1.656 0 0 0-.949.95 2.766 2.766 0 0 0-.172.928c-.024.527-.03.685-.03 2.02s.006 1.493.03 2.02a2.766 2.766 0 0 0 .172.929 1.656 1.656 0 0 0 .95.949 2.766 2.766 0 0 0 .928.172c.527.024.685.029 2.02.029s1.493-.005 2.02-.03a2.766 2.766 0 0 0 .929-.171 1.656 1.656 0 0 0 .949-.95 2.766 2.766 0 0 0 .172-.928c.024-.527.029-.685.029-2.02s-.005-1.493-.03-2.02a2.766 2.766 0 0 0-.171-.929zM9.6 12.168A2.568 2.568 0 1 1 12.168 9.6 2.568 2.568 0 0 1 9.6 12.168zm2.669-4.637a.6.6 0 1 1 .6-.6.6.6 0 0 1-.6.6z"/><circle cx="9.6" cy="9.6" r="1.667"/><path d="M9.6 0a9.6 9.6 0 1 0 9.6 9.6A9.6 9.6 0 0 0 9.6 0zm4.97 11.661a3.67 3.67 0 0 1-.233 1.214 2.556 2.556 0 0 1-1.462 1.462 3.67 3.67 0 0 1-1.213.233c-.534.024-.704.03-2.062.03s-1.528-.006-2.062-.03a3.67 3.67 0 0 1-1.213-.233 2.556 2.556 0 0 1-1.462-1.462 3.67 3.67 0 0 1-.233-1.213c-.024-.534-.03-.704-.03-2.062s.006-1.528.03-2.062a3.67 3.67 0 0 1 .232-1.213 2.556 2.556 0 0 1 1.463-1.463 3.67 3.67 0 0 1 1.213-.232c.534-.024.704-.03 2.062-.03s1.528.006 2.062.03a3.67 3.67 0 0 1 1.213.232 2.556 2.556 0 0 1 1.462 1.463 3.67 3.67 0 0 1 .233 1.213c.024.534.03.704.03 2.062s-.006 1.528-.03 2.062z"/></svg><svg viewBox="0 0 800 800" width="800" height="800" id="ws-icon"><defs><style>.kcls-1{fill:none}.kcls-2{fill:#84c9e7}</style></defs><title>ws-icon</title><path class="kcls-1" d="M50 50.01h700v699.98H50z" id="kEbene_1" data-name="Ebene 1"/><g id="kEbene_2" data-name="Ebene 2"><path class="kcls-2" d="M413.47 347.38a284.41 284.41 0 0 0 12.31-27.28c4.45-11.74 8-29.42 3.19-44.54s-13.73-22.31-22.28-22.31c-14.19 0-13.49 14.15-12.48 31 1.53 25.15 17.21 58.7 19.26 63.13zm-191.74-44.39l98.59 243.78 11.78-31.15-93.42-212.63h-16.95z"/><path class="kcls-2" d="M400 25C192.9 25 25 192.9 25 400s167.9 375 375 375 375-167.9 375-375S607.1 25 400 25zm248.88 278h-51.06l-119 290.13-80.12-173.89-78 175.88L201.64 303h-50.49v-20h137.7v20h-37.52l90.45 196.75 46.46-99.43c-10.15-20.44-17.88-37.27-21.55-47.9a157.38 157.38 0 0 1-8.62-51.81c0-12.49 2.12-20.16 4-27.46l-65.41 56.23 64.2-74.38-64.21-74.38 74.54 64.07 74.54-64.07-49.81 57.7a52.43 52.43 0 0 1 11.38-1.18c7 0 12.92 1.84 17.86 5.55a44.45 44.45 0 0 1 12.92 13.93 52.51 52.51 0 0 1 8 17.27 56.53 56.53 0 0 1 3.09 17.27 93.2 93.2 0 0 1-8.62 39q-8.63 18.94-17.25 36.77l70.33 133.56 78-197.45H528V283h120.88z"/><path class="kcls-2" d="M403.53 360.7q-9.25-18.94-17.25-38.43c-4.91-13.38-8.51-22-9.74-36.13 0 0-2.5 11.29-2.5 19.75a140.17 140.17 0 0 0 6.76 42.89 295.48 295.48 0 0 0 17.86 40.09l76.22 156.83 9-26-33-65.46Q426.91 408 403.53 360.7z"/></g></svg><svg id="ws-logo-wortbild" viewBox="0 0 440 110" width="440" height="110" x="800"><style>.lst0{fill:#fff}</style><ellipse cx="55" cy="55" rx="50" ry="50"/><path class="lst0" d="M82.5 39.4H72.1v2.7h5.8l-.2.6-10.2 25.7-9.4-17.8c.8-1.6 1.5-3.2 2.3-4.9.8-1.7 1.1-3.4 1.1-5.2 0-.7-.1-1.5-.4-2.3-.2-.8-.6-1.6-1.1-2.3-.4-.7-1-1.4-1.7-1.9s-1.5-.7-2.4-.7c-.6 0-1.1.1-1.5.2l6.6-7.7-9.9 8.5-9.9-8.5 8.6 9.9-8.6 9.9 8.8-7.5c-.1.3-.2.5-.2.8-.2 1-.3 2-.3 2.9 0 2.4.4 4.7 1.1 6.9.8 2.2 1.8 4.3 2.9 6.4l-6.2 13.3-12.1-26.3h5v-2.7H21.9v2.7h6.7l15.9 39 10.4-23.5 10.7 23.2 15.9-38.7h6.8v-2.7h-5.8zM44.4 74.6L31.2 42.1h2.3L46 70.4l-1.6 4.2zm10-38.2c.2-.6.7-1 1.5-1 .5 0 1 .2 1.5.6.4.3.8.8 1 1.3.3.5.5 1 .6 1.6.2.6.2 1.1.2 1.5 0 1.3-.2 2.6-.7 3.9-.5 1.2-1 2.4-1.6 3.6-.3-.6-.6-1.3-.9-2.2l-.9-2.7c-.2-.9-.4-1.9-.6-2.7-.1-.4-.1-.7-.2-1V39c0-.3-.1-.7-.1-1 0-.4.1-1 .2-1.6zm10.6 38L54.8 53.5c-.9-1.7-1.7-3.5-2.4-5.3-.6-1.9-.9-3.8-.9-5.7 0-.3.2-1.3.2-1.6l.2-1c.2 1.9.6 3 1.3 4.8.7 1.7 1.5 3.4 2.3 5.1 2.1 4.2 4.2 8.4 6.3 12.5l4.4 8.7-1.2 3.4z"/><path transform="rotate(-45.017 140.176 8.333)" d="M138.7 6.9h2.9v2.9h-2.9z"/><path transform="rotate(-44.988 140.158 14.999)" d="M138.7 13.5h2.9v2.9h-2.9z"/><path transform="rotate(-45.001 140.172 21.668)" d="M138.7 20.2h2.9v2.9h-2.9z"/><path transform="rotate(-45.017 140.176 28.334)" d="M138.7 26.9h2.9v2.9h-2.9z"/><path transform="rotate(-45.001 140.178 35)" d="M138.7 33.5h2.9v2.9h-2.9z"/><path transform="rotate(-45.009 140.158 41.67)" d="M138.7 40.2h2.9v2.9h-2.9z"/><path transform="rotate(-44.984 140.174 48.334)" d="M138.7 46.9h2.9v2.9h-2.9z"/><path transform="rotate(-45.001 140.178 55.002)" d="M138.7 53.5h2.9v2.9h-2.9z"/><path transform="rotate(-45.017 140.176 61.67)" d="M138.7 60.2h2.9v2.9h-2.9z"/><path transform="rotate(-44.988 140.158 68.328)" d="M138.7 66.9h2.9v2.9h-2.9z"/><path transform="rotate(-45.001 140.172 75.002)" d="M138.7 73.5h2.9v2.9h-2.9z"/><path transform="rotate(-45.017 140.177 81.67)" d="M138.7 80.2h2.9v2.9h-2.9z"/><path transform="rotate(-44.988 140.158 88.327)" d="M138.7 86.9h2.9v2.9h-2.9z"/><path transform="rotate(-44.988 140.158 94.993)" d="M138.7 93.5h2.9v2.9h-2.9z"/><path transform="rotate(-44.988 140.158 101.66)" d="M138.7 100.2h2.9v2.9h-2.9z"/><path d="M435 67.5v-25c0-.3-.1-.4-.4-.4h-3.9c-.3 0-.4.1-.4.4v5.2c0 3.2.2 9.1.2 10.1h-.2c-.1-.3-.7-1.8-.9-2.1l-7.3-13.5c-.1-.1-.2-.2-.4-.2h-3.4c-.3 0-.4.1-.4.4v25c0 .3.1.4.4.4h3.9c.3 0 .4-.1.4-.4v-5.1c0-3.2-.2-9.1-.2-10.1h.2c.1.3.7 1.8.9 2.1l7.3 13.4c.1.1.2.2.4.2h3.4c.3 0 .4-.1.4-.4m-28.2 0v-25c0-.3-.1-.4-.4-.4h-3.9c-.3 0-.4.1-.4.4v25c0 .3.1.4.4.4h3.9c.3 0 .4-.1.4-.4m-15.2 0V64c0-.3-.1-.4-.4-.4h-9.8c-.3 0-.4-.1-.4-.4v-5.8c0-.3.1-.4.4-.4h8c.3 0 .4-.1.4-.4v-3.5c0-.3-.1-.4-.4-.4h-8c-.3 0-.4-.1-.4-.4v-5.5c0-.3.1-.4.4-.4h9.8c.3 0 .4-.1.4-.4v-3.5c0-.3-.1-.4-.4-.4h-14.5c-.3 0-.4.1-.4.4v25c0 .3.1.4.4.4h14.5c.3 0 .4-.1.4-.4M366.8 46v-3.5c0-.3-.1-.4-.4-.4H352c-.3 0-.4.1-.4.4V46c0 .3.1.4.4.4h4.5c.3 0 .4.1.4.4v20.7c0 .3.1.4.4.4h3.9c.3 0 .4-.1.4-.4V46.8c0-.3.1-.4.4-.4h4.5c.2 0 .3-.1.3-.4m-23.5 15.1c0-5-3.3-6.9-6.4-8.3-2.4-1.1-4.8-1.7-4.8-3.8 0-1.6 1.4-3 3-3h.7c1.1 0 2.2.7 2.9 2.4.1.2.2.3.3.3.2 0 .3-.1.5-.2l3.3-1.7c.2-.1.2-.2.2-.3 0-.2-.4-.9-.8-1.5-1.2-1.9-3.1-3.3-6.5-3.3h-.7c-4.7 0-7.6 3-7.6 7.3 0 4.8 3.6 6.5 6.8 8.1 2.2 1 4.4 1.8 4.4 4.1 0 1.6-1.4 3-3 3H334c-1.1 0-2.2-.7-2.9-2.4-.1-.2-.2-.3-.3-.3-.2 0-.3.1-.5.2l-3.3 1.7c-.2.1-.2.2-.2.3 0 .2.4.9.8 1.5 1.2 1.9 3.1 3.3 6.5 3.3h1.6c4.7-.2 7.6-3.2 7.6-7.4m-23.1 6.4V64c0-.3-.1-.4-.4-.4H310c-.3 0-.4-.1-.4-.4V42.5c0-.3-.1-.4-.4-.4h-3.9c-.3 0-.4.1-.4.4v25c0 .3.1.4.4.4h14.5c.2 0 .4-.1.4-.4m-25.8 0V64c0-.3-.1-.4-.4-.4h-9.8c-.3 0-.4-.1-.4-.4v-5.8c0-.3.1-.4.4-.4h8c.3 0 .4-.1.4-.4v-3.5c0-.3-.1-.4-.4-.4h-8c-.3 0-.4-.1-.4-.4v-5.5c0-.3.1-.4.4-.4h9.8c.3 0 .4-.1.4-.4v-3.5c0-.3-.1-.4-.4-.4h-14.5c-.3 0-.4.1-.4.4v25c0 .3.1.4.4.4H294c.3 0 .4-.1.4-.4m-25.5-21c0-.2-.4-.9-.8-1.5-1.2-1.9-3.1-3.3-6.5-3.3h-2.7c-4.7 0-7.6 3-7.6 7.3v12.1c0 4.3 3 7.3 7.6 7.3h2c4.6 0 7.6-3 7.6-7.3v-6.2c0-.3-.1-.4-.4-.4h-8.6c-.3 0-.4.1-.4.4v3.5c0 .3.1.4.4.4h3.9c.3 0 .4.1.4.4v1.9c0 1.6-1.3 3-2.9 3h-2c-1.6 0-3-1.4-3-3V48.9c0-1.6 1.4-3 3-3h2.7c1.1 0 2.2.7 2.9 2.4.1.2.2.3.3.3.2 0 .3-.1.5-.2l3.3-1.7c.2 0 .3-.1.3-.2m-28.4 21v-25c0-.3-.1-.4-.4-.4h-3.9c-.3 0-.4.1-.4.4v25c0 .3.1.4.4.4h3.9c.2 0 .4-.1.4-.4m-15.2 0V64c0-.3-.1-.4-.4-.4h-9.8c-.3 0-.4-.1-.4-.4v-5.8c0-.3.1-.4.4-.4h8c.3 0 .4-.1.4-.4v-3.5c0-.3-.1-.4-.4-.4h-8c-.3 0-.4-.1-.4-.4v-5.5c0-.3.1-.4.4-.4h9.8c.3 0 .4-.1.4-.4v-3.5c0-.3-.1-.4-.4-.4h-14.5c-.3 0-.4.1-.4.4v25c0 .3.1.4.4.4h14.5c.3 0 .4-.1.4-.4m-24.4-25.1c0-.2-.1-.3-.4-.3h-4.2c-.2 0-.4.1-.4.3l-2.4 12.7c-.1.4-.3 2.2-.4 2.5h-.2c-.1-.3-.5-2.2-.5-2.5L189 42.3c0-.2-.2-.3-.4-.3h-2.1c-.2 0-.4.1-.4.3l-3.4 12.8c-.1.3-.5 2.2-.5 2.5h-.2c-.1-.3-.4-2.3-.4-2.5l-2.4-12.7c0-.2-.2-.3-.4-.3h-4.2c-.3 0-.4.1-.4.3 0 .2.1.7.2 1.1l5.2 24.1c0 .2.2.3.4.3h3c.2 0 .4-.1.4-.3l3.6-12.4c.1-.3.4-1.9.5-2.3h.1c.1.3.4 2 .5 2.3l3.6 12.4c0 .2.2.3.4.3h3c.2 0 .4-.1.4-.3l5.2-24.1c.1-.4.2-.9.2-1.1"/></svg></svg>