<?xml version="1.0" encoding="utf-8"?>
<!-- Generator: Adobe Illustrator 19.2.0, SVG Export Plug-In . SVG Version: 6.00 Build 0)  -->
<!DOCTYPE svg PUBLIC "-//W3C//DTD SVG 1.1//EN" "http://www.w3.org/Graphics/SVG/1.1/DTD/svg11.dtd">
<svg version="1.1" xmlns="http://www.w3.org/2000/svg" xmlns:xlink="http://www.w3.org/1999/xlink" x="0px" y="0px"
	 viewBox="0 0 80 80" enable-background="new 0 0 80 80" xml:space="preserve">
<g id="CHART-BG">
</g>
<g id="CHART-ELEMENTS">
</g>
<g id="SCREEN-BG">
</g>
<g id="BROWSER-DUMMYS">
</g>
<g id="COLS_2_" display="none">
</g>
<g id="LAYOUT">
	<path fill="#8E8E8E" d="M40,4C20.1,4,4,20.1,4,40c0,19.9,16.1,36,36,36s36-16.1,36-36C76,20.1,59.9,4,40,4z M47.9,33.9l-0.4,5.4H42
		V58h-7V39.3h-3.7v-5.4H35v-1.7v-1.7v-0.3c0-1.6,0-4.1,1.2-5.6c1.2-1.6,2.9-2.7,5.8-2.7c4.7,0,6.7,0.7,6.7,0.7l-0.9,5.5
		c0,0-1.6-0.4-3-0.4s-2.7,0.5-2.7,2v0.6v1.9v1.7H47.9z"/>
</g>
<g id="MENU">
</g>
<g id="TITEL">
</g>
<g id="FLUID-GRID-12_C-120_G-20" display="none">
	<g id="COLS_1_">
	</g>
	<g id="GUIDS_1_">
	</g>
	<g id="Ebene_11">
	</g>
</g>
<g id="LG_-_GRID-12_C-80_G-20">
	<g id="COLS" display="none">
	</g>
	<g id="GUIDS">
	</g>
	<g id="Ebene_8" display="none">
	</g>
</g>
<g id="SM__x2B__XS">
	<g id="COLS_3_" display="none">
	</g>
	<g id="GUIDES">
	</g>
</g>
<g id="INFO_1_">
</g>
<g id="LG_-_GRID-12_C-70_G-30" display="none">
	<g id="COLS_Kopie" display="inline">
	</g>
	<g id="GUIDS_Kopie" display="inline">
	</g>
	<g id="INFO" display="inline">
	</g>
</g>
</svg>
