<?xml version="1.0" encoding="utf-8"?>
<!-- Generator: Adobe Illustrator 19.2.0, SVG Export Plug-In . SVG Version: 6.00 Build 0)  -->
<!DOCTYPE svg PUBLIC "-//W3C//DTD SVG 1.1//EN" "http://www.w3.org/Graphics/SVG/1.1/DTD/svg11.dtd">
<svg version="1.1" xmlns="http://www.w3.org/2000/svg" xmlns:xlink="http://www.w3.org/1999/xlink" x="0px" y="0px"
	 viewBox="0 0 80 80" enable-background="new 0 0 80 80" xml:space="preserve">
<g id="CHART-BG">
</g>
<g id="CHART-ELEMENTS">
</g>
<g id="SCREEN-BG">
</g>
<g id="BROWSER-DUMMYS">
</g>
<g id="COLS_2_" display="none">
</g>
<g id="LAYOUT">
	<path fill="#8E8E8E" d="M37.5,32.7c0.5,3.6-1.4,6.4-4.1,6.3c-2.7-0.1-5.3-3-5.8-6.6c-0.5-3.6,1.4-6.3,4.1-6.3
		C34.5,26.3,37.1,29.2,37.5,32.7z M33.1,46c-4.1,0-7.7,2.5-7.7,5.5c0,3.1,2.9,5.7,7,5.7c5.7,0,7.7-2.4,7.7-5.5c0-0.4,0-0.7-0.1-1.1
		c-0.5-1.8-2-2.6-4.2-4.2C34.9,46.2,34,46.1,33.1,46z M76,40c0,19.9-16.1,36-36,36S4,59.9,4,40C4,20.1,20.1,4,40,4S76,20.1,76,40z
		 M37.9,26.4h3.4l2.4-1.7H33.1c-4.7,0-9.2,3.6-9.2,7.8c0,4.2,3.2,7.7,8.1,7.7l1,0c-0.3,0.6-0.5,1.3-0.5,2c0,1.2,0.6,2.1,1.4,2.9
		l-1.8,0c-5.9,0-10.4,3.7-10.4,7.6c0,3.8,5,6.2,10.8,6.2c6.7,0,10.4-3.8,10.4-7.6c0-3.1-0.9-4.9-3.7-6.9c-1-0.7-2.8-2.3-2.8-3.3
		c0-1.1,0.3-1.7,2-3c1.8-1.4,3-3.3,3-5.5C41.3,29.9,40.2,27.3,37.9,26.4z M62,32.2h-7.6v-7.5h-2.5v7.5h-7.6v2.5h7.6v7.7h2.5v-7.7H62
		V32.2z"/>
</g>
<g id="MENU">
</g>
<g id="TITEL">
</g>
<g id="FLUID-GRID-12_C-120_G-20" display="none">
	<g id="COLS_1_">
	</g>
	<g id="GUIDS_1_">
	</g>
	<g id="Ebene_11">
	</g>
</g>
<g id="LG_-_GRID-12_C-80_G-20">
	<g id="COLS" display="none">
	</g>
	<g id="GUIDS">
	</g>
	<g id="Ebene_8" display="none">
	</g>
</g>
<g id="SM__x2B__XS">
	<g id="COLS_3_" display="none">
	</g>
	<g id="GUIDES">
	</g>
</g>
<g id="INFO_1_">
</g>
<g id="LG_-_GRID-12_C-70_G-30" display="none">
	<g id="COLS_Kopie" display="inline">
	</g>
	<g id="GUIDS_Kopie" display="inline">
	</g>
	<g id="INFO" display="inline">
	</g>
</g>
</svg>
