<?xml version="1.0" encoding="utf-8"?>
<!-- Generator: Adobe Illustrator 19.2.0, SVG Export Plug-In . SVG Version: 6.00 Build 0)  -->
<!DOCTYPE svg PUBLIC "-//W3C//DTD SVG 1.1//EN" "http://www.w3.org/Graphics/SVG/1.1/DTD/svg11.dtd">
<svg version="1.1" xmlns="http://www.w3.org/2000/svg" xmlns:xlink="http://www.w3.org/1999/xlink" x="0px" y="0px"
	 viewBox="0 0 80 80" enable-background="new 0 0 80 80" xml:space="preserve">
<g id="CHART-BG">
</g>
<g id="CHART-ELEMENTS">
</g>
<g id="SCREEN-BG">
</g>
<g id="BROWSER-DUMMYS">
</g>
<g id="COLS_2_" display="none">
</g>
<g id="LAYOUT">
	<g>
		<path fill="#8E8E8E" d="M42.1,21H30.3c-5.3,0-10.2,4-10.2,8.6c0,4.7,3.6,8.6,9,8.6l1.1,0c-0.3,0.7-0.6,1.4-0.6,2.2
			c0,1.3,0.7,2.4,1.6,3.3l-2,0c-6.5,0-11.6,4.2-11.6,8.5c0,4.3,5.5,6.9,12.1,6.9c7.4,0,11.6-4.2,11.6-8.5c0-3.4-1-5.5-4.1-7.6
			c-1.1-0.8-3.1-2.6-3.1-3.7c0-1.3,0.4-1.9,2.3-3.4c1.9-1.5,3.3-3.7,3.3-6.2c0-3-1.3-5.8-3.8-6.8h3.7L42.1,21z M38,49.8
			c0.1,0.4,0.1,0.8,0.1,1.2c0,3.4-2.2,6.1-8.6,6.1c-4.5,0-7.8-2.9-7.8-6.3c0-3.4,4-6.2,8.6-6.1c1.1,0,2,0.2,2.9,0.5
			C35.7,46.9,37.5,47.9,38,49.8z M30.7,37c-3-0.1-5.9-3.4-6.4-7.4c-0.5-4,1.5-7,4.5-6.9c3,0.1,5.9,3.3,6.4,7.3
			C35.8,33.9,33.7,37.1,30.7,37z"/>
		<polygon fill="#8E8E8E" points="54,29.3 54,21 51.3,21 51.3,29.3 42.8,29.3 42.8,32.1 51.3,32.1 51.3,40.7 54,40.7 54,32.1 
			62.5,32.1 62.5,29.3 		"/>
	</g>
</g>
<g id="MENU">
</g>
<g id="TITEL">
</g>
<g id="FLUID-GRID-12_C-120_G-20" display="none">
	<g id="COLS_1_">
	</g>
	<g id="GUIDS_1_">
	</g>
	<g id="Ebene_11">
	</g>
</g>
<g id="LG_-_GRID-12_C-80_G-20">
	<g id="COLS" display="none">
	</g>
	<g id="GUIDS">
	</g>
	<g id="Ebene_8" display="none">
	</g>
</g>
<g id="SM__x2B__XS">
	<g id="COLS_3_" display="none">
	</g>
	<g id="GUIDES">
	</g>
</g>
<g id="INFO_1_">
</g>
<g id="LG_-_GRID-12_C-70_G-30" display="none">
	<g id="COLS_Kopie" display="inline">
	</g>
	<g id="GUIDS_Kopie" display="inline">
	</g>
	<g id="INFO" display="inline">
	</g>
</g>
</svg>
