<svg xmlns="http://www.w3.org/2000/svg" viewBox="0 0 800 800"><defs><style>.cls-1{fill:none;}.cls-2{fill:#84c9e7;}</style></defs><title>ws-icon</title><g id="Ebene_1" data-name="Ebene 1"><rect class="cls-1" x="50" y="50.01" width="700" height="699.98"/></g><g id="Ebene_2" data-name="Ebene 2"><path class="cls-2" d="M413.47,347.38a284.41,284.41,0,0,0,12.31-27.28c4.45-11.74,8-29.42,3.19-44.54s-13.73-22.31-22.28-22.31c-14.19,0-13.49,14.15-12.48,31C395.74,309.4,411.42,342.95,413.47,347.38Z"/><polygon class="cls-2" points="221.73 302.99 320.32 546.77 332.1 515.62 238.68 302.99 221.73 302.99"/><path class="cls-2" d="M400,25C192.9,25,25,192.9,25,400S192.9,775,400,775,775,607.1,775,400,607.1,25,400,25ZM648.88,303H597.82l-119,290.13L398.7,419.24l-78,175.88L201.64,303H151.15V283h137.7v20H251.33l90.45,196.75,46.46-99.43c-10.15-20.44-17.88-37.27-21.55-47.9a157.38,157.38,0,0,1-8.62-51.81c0-12.49,2.12-20.16,4-27.46l-65.41,56.23L360.86,255l-64.21-74.38,74.54,64.07,74.54-64.07-49.81,57.7a52.43,52.43,0,0,1,11.38-1.18c7,0,12.92,1.84,17.86,5.55a44.45,44.45,0,0,1,12.92,13.93,52.51,52.51,0,0,1,8,17.27,56.53,56.53,0,0,1,3.09,17.27,93.2,93.2,0,0,1-8.62,39q-8.63,18.94-17.25,36.77l70.33,133.56,78-197.45H528V283H648.88Z"/><path class="cls-2" d="M403.53,360.7q-9.25-18.94-17.25-38.43c-4.91-13.38-8.51-22-9.74-36.13,0,0-2.5,11.29-2.5,19.75a140.17,140.17,0,0,0,6.76,42.89,295.48,295.48,0,0,0,17.86,40.09L474.88,545.7l9-26-33-65.46Q426.91,408,403.53,360.7Z"/></g></svg>