<?xml version="1.0" encoding="utf-8"?>
<!-- Generator: Adobe Illustrator 20.1.0, SVG Export Plug-In . SVG Version: 6.00 Build 0)  -->
<!DOCTYPE svg PUBLIC "-//W3C//DTD SVG 1.1//EN" "http://www.w3.org/Graphics/SVG/1.1/DTD/svg11.dtd">
<svg version="1.1" id="Ebene_1" xmlns="http://www.w3.org/2000/svg" xmlns:xlink="http://www.w3.org/1999/xlink" x="0px" y="0px"
	 viewBox="0 0 440 110" style="enable-background:new 0 0 440 110;" xml:space="preserve">
<style type="text/css">
	.st0{fill:#FFFFFF;}
</style>
<g>
	<ellipse cx="55" cy="55" rx="50" ry="50"/>
	<path class="st0" d="M82.5,39.4h-4h-6.4v2.7h5.8l-0.2,0.6L67.5,68.4l-9.4-17.8c0.8-1.6,1.5-3.2,2.3-4.9c0.8-1.7,1.1-3.4,1.1-5.2
		c0-0.7-0.1-1.5-0.4-2.3c-0.2-0.8-0.6-1.6-1.1-2.3c-0.4-0.7-1-1.4-1.7-1.9c-0.7-0.5-1.5-0.7-2.4-0.7c-0.6,0-1.1,0.1-1.5,0.2l6.6-7.7
		l-9.9,8.5l-9.9-8.5l8.6,9.9l-8.6,9.9l8.8-7.5c-0.1,0.3-0.2,0.5-0.2,0.8c-0.2,1-0.3,2-0.3,2.9c0,2.4,0.4,4.7,1.1,6.9
		c0.8,2.2,1.8,4.3,2.9,6.4l-6.2,13.3L35.2,42.1h5v-2.7h-5.8h-2h-2.2h-2.6h-5.7v2.7h6.7l15.9,39l10.4-23.5l10.7,23.2l15.9-38.7h6.8
		v-2.7H82.5z M44.4,74.6L31.2,42.1h2.3L46,70.4L44.4,74.6z M54.4,36.4c0.2-0.6,0.7-1,1.5-1c0.5,0,1,0.2,1.5,0.6
		c0.4,0.3,0.8,0.8,1,1.3c0.3,0.5,0.5,1,0.6,1.6c0.2,0.6,0.2,1.1,0.2,1.5c0,1.3-0.2,2.6-0.7,3.9c-0.5,1.2-1,2.4-1.6,3.6
		c-0.3-0.6-0.6-1.3-0.9-2.2c-0.3-0.9-0.6-1.8-0.9-2.7c-0.2-0.9-0.4-1.9-0.6-2.7c-0.1-0.4-0.1-0.7-0.2-1c0-0.1,0-0.2,0-0.3
		c0-0.3-0.1-0.7-0.1-1C54.2,37.6,54.3,37,54.4,36.4z M65,74.4L54.8,53.5c-0.9-1.7-1.7-3.5-2.4-5.3c-0.6-1.9-0.9-3.8-0.9-5.7
		c0-0.3,0.2-1.3,0.2-1.6l0.2-1c0.2,1.9,0.6,3,1.3,4.8c0.7,1.7,1.5,3.4,2.3,5.1c2.1,4.2,4.2,8.4,6.3,12.5l4.4,8.7L65,74.4z"/>
</g>
<g>
	<rect x="138.7" y="6.9" transform="matrix(0.7069 -0.7073 0.7073 0.7069 35.1916 101.589)" width="2.9" height="2.9"/>
	<rect x="138.7" y="13.5" transform="matrix(0.7073 -0.707 0.707 0.7073 30.4286 103.483)" width="2.9" height="2.9"/>
	<rect x="138.7" y="20.2" transform="matrix(0.7071 -0.7071 0.7071 0.7071 25.7352 105.462)" width="2.9" height="2.9"/>
	<rect x="138.7" y="26.9" transform="matrix(0.7069 -0.7073 0.7073 0.7069 21.0449 107.4514)" width="2.9" height="2.9"/>
	<rect x="138.7" y="33.5" transform="matrix(0.7071 -0.7071 0.7071 0.7071 16.3094 109.3717)" width="2.9" height="2.9"/>
	<rect x="138.7" y="40.2" transform="matrix(0.707 -0.7072 0.7072 0.707 11.5975 111.3289)" width="2.9" height="2.9"/>
	<rect x="138.7" y="46.9" transform="matrix(0.7073 -0.7069 0.7069 0.7073 6.8614 113.2364)" width="2.9" height="2.9"/>
	<rect x="138.7" y="53.5" transform="matrix(0.7071 -0.7071 0.7071 0.7071 2.1666 115.2302)" width="2.9" height="2.9"/>
	<rect x="138.7" y="60.2" transform="matrix(0.7069 -0.7073 0.7073 0.7069 -2.533 117.2221)" width="2.9" height="2.9"/>
	<rect x="138.7" y="66.9" transform="matrix(0.7073 -0.707 0.707 0.7073 -7.2754 119.0957)" width="2.9" height="2.9"/>
	<rect x="138.7" y="73.5" transform="matrix(0.7071 -0.7071 0.7071 0.7071 -11.9778 121.0836)" width="2.9" height="2.9"/>
	<rect x="138.7" y="80.2" transform="matrix(0.7069 -0.7073 0.7073 0.7069 -16.6797 123.0846)" width="2.9" height="2.9"/>
	<rect x="138.7" y="86.9" transform="matrix(0.7073 -0.707 0.707 0.7073 -21.4144 124.9504)" width="2.9" height="2.9"/>
	<rect x="138.7" y="93.5" transform="matrix(0.7073 -0.707 0.707 0.7073 -26.1274 126.902)" width="2.9" height="2.9"/>
	<rect x="138.7" y="100.2" transform="matrix(0.7073 -0.707 0.707 0.7073 -30.8404 128.8535)" width="2.9" height="2.9"/>
</g>
<path d="M435,67.5v-25c0-0.3-0.1-0.4-0.4-0.4h-3.9c-0.3,0-0.4,0.1-0.4,0.4v5.2c0,3.2,0.2,9.1,0.2,10.1l-0.2,0
	c-0.1-0.3-0.7-1.8-0.9-2.1l-7.3-13.5c-0.1-0.1-0.2-0.2-0.4-0.2h-3.4c-0.3,0-0.4,0.1-0.4,0.4v25c0,0.3,0.1,0.4,0.4,0.4h3.9
	c0.3,0,0.4-0.1,0.4-0.4v-5.1c0-3.2-0.2-9.1-0.2-10.1l0.2,0c0.1,0.3,0.7,1.8,0.9,2.1l7.3,13.4c0.1,0.1,0.2,0.2,0.4,0.2h3.4
	C434.9,67.9,435,67.8,435,67.5 M406.8,67.5v-25c0-0.3-0.1-0.4-0.4-0.4h-3.9c-0.3,0-0.4,0.1-0.4,0.4v25c0,0.3,0.1,0.4,0.4,0.4h3.9
	C406.7,67.9,406.8,67.8,406.8,67.5 M391.6,67.5V64c0-0.3-0.1-0.4-0.4-0.4h-9.8c-0.3,0-0.4-0.1-0.4-0.4v-5.8c0-0.3,0.1-0.4,0.4-0.4h8
	c0.3,0,0.4-0.1,0.4-0.4v-3.5c0-0.3-0.1-0.4-0.4-0.4h-8c-0.3,0-0.4-0.1-0.4-0.4v-5.5c0-0.3,0.1-0.4,0.4-0.4h9.8
	c0.3,0,0.4-0.1,0.4-0.4v-3.5c0-0.3-0.1-0.4-0.4-0.4h-14.5c-0.3,0-0.4,0.1-0.4,0.4v25c0,0.3,0.1,0.4,0.4,0.4h14.5
	C391.5,67.9,391.6,67.8,391.6,67.5 M366.8,46v-3.5c0-0.3-0.1-0.4-0.4-0.4h-14.4c-0.3,0-0.4,0.1-0.4,0.4V46c0,0.3,0.1,0.4,0.4,0.4
	h4.5c0.3,0,0.4,0.1,0.4,0.4v20.7c0,0.3,0.1,0.4,0.4,0.4h3.9c0.3,0,0.4-0.1,0.4-0.4V46.8c0-0.3,0.1-0.4,0.4-0.4h4.5
	C366.7,46.4,366.8,46.3,366.8,46 M343.3,61.1c0-5-3.3-6.9-6.4-8.3c-2.4-1.1-4.8-1.7-4.8-3.8c0-1.6,1.4-3,3-3h0.7
	c1.1,0,2.2,0.7,2.9,2.4c0.1,0.2,0.2,0.3,0.3,0.3c0.2,0,0.3-0.1,0.5-0.2l3.3-1.7c0.2-0.1,0.2-0.2,0.2-0.3c0-0.2-0.4-0.9-0.8-1.5
	c-1.2-1.9-3.1-3.3-6.5-3.3h-0.7c-4.7,0-7.6,3-7.6,7.3c0,4.8,3.6,6.5,6.8,8.1c2.2,1,4.4,1.8,4.4,4.1c0,1.6-1.4,3-3,3H334
	c-1.1,0-2.2-0.7-2.9-2.4c-0.1-0.2-0.2-0.3-0.3-0.3c-0.2,0-0.3,0.1-0.5,0.2l-3.3,1.7c-0.2,0.1-0.2,0.2-0.2,0.3c0,0.2,0.4,0.9,0.8,1.5
	c1.2,1.9,3.1,3.3,6.5,3.3h1.6C340.4,68.3,343.3,65.3,343.3,61.1 M320.2,67.5V64c0-0.3-0.1-0.4-0.4-0.4H310c-0.3,0-0.4-0.1-0.4-0.4
	V42.5c0-0.3-0.1-0.4-0.4-0.4h-3.9c-0.3,0-0.4,0.1-0.4,0.4v25c0,0.3,0.1,0.4,0.4,0.4h14.5C320,67.9,320.2,67.8,320.2,67.5
	 M294.4,67.5V64c0-0.3-0.1-0.4-0.4-0.4h-9.8c-0.3,0-0.4-0.1-0.4-0.4v-5.8c0-0.3,0.1-0.4,0.4-0.4h8c0.3,0,0.4-0.1,0.4-0.4v-3.5
	c0-0.3-0.1-0.4-0.4-0.4h-8c-0.3,0-0.4-0.1-0.4-0.4v-5.5c0-0.3,0.1-0.4,0.4-0.4h9.8c0.3,0,0.4-0.1,0.4-0.4v-3.5
	c0-0.3-0.1-0.4-0.4-0.4h-14.5c-0.3,0-0.4,0.1-0.4,0.4v25c0,0.3,0.1,0.4,0.4,0.4H294C294.3,67.9,294.4,67.8,294.4,67.5 M268.9,46.5
	c0-0.2-0.4-0.9-0.8-1.5c-1.2-1.9-3.1-3.3-6.5-3.3h-2.7c-4.7,0-7.6,3-7.6,7.3v12.1c0,4.3,3,7.3,7.6,7.3h2c4.6,0,7.6-3,7.6-7.3v-6.2
	c0-0.3-0.1-0.4-0.4-0.4h-8.6c-0.3,0-0.4,0.1-0.4,0.4v3.5c0,0.3,0.1,0.4,0.4,0.4h3.9c0.3,0,0.4,0.1,0.4,0.4v1.9c0,1.6-1.3,3-2.9,3h-2
	c-1.6,0-3-1.4-3-3V48.9c0-1.6,1.4-3,3-3h2.7c1.1,0,2.2,0.7,2.9,2.4c0.1,0.2,0.2,0.3,0.3,0.3c0.2,0,0.3-0.1,0.5-0.2l3.3-1.7
	C268.8,46.7,268.9,46.6,268.9,46.5 M240.5,67.5v-25c0-0.3-0.1-0.4-0.4-0.4h-3.9c-0.3,0-0.4,0.1-0.4,0.4v25c0,0.3,0.1,0.4,0.4,0.4
	h3.9C240.3,67.9,240.5,67.8,240.5,67.5 M225.3,67.5V64c0-0.3-0.1-0.4-0.4-0.4h-9.8c-0.3,0-0.4-0.1-0.4-0.4v-5.8
	c0-0.3,0.1-0.4,0.4-0.4h8c0.3,0,0.4-0.1,0.4-0.4v-3.5c0-0.3-0.1-0.4-0.4-0.4h-8c-0.3,0-0.4-0.1-0.4-0.4v-5.5c0-0.3,0.1-0.4,0.4-0.4
	h9.8c0.3,0,0.4-0.1,0.4-0.4v-3.5c0-0.3-0.1-0.4-0.4-0.4h-14.5c-0.3,0-0.4,0.1-0.4,0.4v25c0,0.3,0.1,0.4,0.4,0.4h14.5
	C225.2,67.9,225.3,67.8,225.3,67.5 M200.9,42.4c0-0.2-0.1-0.3-0.4-0.3h-4.2c-0.2,0-0.4,0.1-0.4,0.3l-2.4,12.7
	c-0.1,0.4-0.3,2.2-0.4,2.5h-0.2c-0.1-0.3-0.5-2.2-0.5-2.5L189,42.3c0-0.2-0.2-0.3-0.4-0.3h-2.1c-0.2,0-0.4,0.1-0.4,0.3l-3.4,12.8
	c-0.1,0.3-0.5,2.2-0.5,2.5H182c-0.1-0.3-0.4-2.3-0.4-2.5l-2.4-12.7c0-0.2-0.2-0.3-0.4-0.3h-4.2c-0.3,0-0.4,0.1-0.4,0.3
	c0,0.2,0.1,0.7,0.2,1.1l5.2,24.1c0,0.2,0.2,0.3,0.4,0.3h3c0.2,0,0.4-0.1,0.4-0.3l3.6-12.4c0.1-0.3,0.4-1.9,0.5-2.3h0.1
	c0.1,0.3,0.4,2,0.5,2.3l3.6,12.4c0,0.2,0.2,0.3,0.4,0.3h3c0.2,0,0.4-0.1,0.4-0.3l5.2-24.1C200.8,43.1,200.9,42.6,200.9,42.4"/>
</svg>
