<svg id="Layer_1" data-name="Layer 1" xmlns="http://www.w3.org/2000/svg" viewBox="0 0 312 60"><defs><style>.cls-1{fill:#594f4f;}.cls-2{fill:#66b2e4;}</style></defs><title>Artboard 1</title><path class="cls-1" d="M247.76,45.56a7.06,7.06,0,0,0,6-2.94q2.17-2.94,2.17-9.06v-.95a8.54,8.54,0,0,1-3.23,3.17,9.07,9.07,0,0,1-4.48,1.12A9.2,9.2,0,0,1,241,33.8a11.74,11.74,0,0,1-2.75-8.08,12.44,12.44,0,0,1,2.87-8.36A9,9,0,0,1,248.26,14a9.8,9.8,0,0,1,7.65,3.14q2.84,3.14,2.84,9.49v6.89q0,7.21-3,10.77a9.9,9.9,0,0,1-8,3.56,19,19,0,0,1-3.53-.34,15.87,15.87,0,0,1-3.39-1l.5-2.26a13.82,13.82,0,0,0,3,1A16.46,16.46,0,0,0,247.76,45.56Zm.47-10.94a7.84,7.84,0,0,0,4.91-1.5,8.31,8.31,0,0,0,2.8-3.72v-3q0-5.11-2-7.61a6.74,6.74,0,0,0-5.55-2.51,6.31,6.31,0,0,0-5.26,2.76A10.79,10.79,0,0,0,241,25.73,10.21,10.21,0,0,0,243,32.09,6.25,6.25,0,0,0,248.24,34.63Z"/><path class="cls-1" d="M285.46,34.61q0,6.37-2.7,9.8a9.93,9.93,0,0,1-15,0Q265,41,265,34.61V27.26q0-6.35,2.7-9.8a9.9,9.9,0,0,1,15,0q2.72,3.46,2.72,9.8Zm-2.71-7.8q0-5.06-1.93-7.78a7.11,7.11,0,0,0-11.2,0q-1.92,2.73-1.92,7.77V35q0,5,2,7.78a7,7,0,0,0,11.18,0Q282.75,40,282.75,35Z"/><path class="cls-2" d="M312,34.61q0,6.37-2.7,9.8a9.93,9.93,0,0,1-15,0q-2.72-3.45-2.72-9.79V27.26q0-6.35,2.7-9.8a9.9,9.9,0,0,1,15,0q2.72,3.46,2.72,9.8Zm-2.71-7.8q0-5.06-1.93-7.78a7.11,7.11,0,0,0-11.2,0q-1.92,2.73-1.92,7.77V35q0,5,2,7.78a7,7,0,0,0,11.18,0Q309.29,40,309.29,35Z"/><path class="cls-1" d="M31.44,26.63q0-6.5-2.9-9.61t-8.18-3.11a10.87,10.87,0,0,0-5.6,1.44,11.89,11.89,0,0,0-4.09,4.05l-.42-4.89H0v3.86l4.92.85V42.69L0,43.54v3.83H15.79V43.54l-4.92-.85V23.41A9.07,9.07,0,0,1,14,20a8.35,8.35,0,0,1,4.54-1.24,6.81,6.81,0,0,1,5.21,1.82q1.71,1.82,1.71,6.16V42.69l-4.92.85v3.83H36.36V43.54l-4.92-.85Z"/><path class="cls-1" d="M92.79,13.91a7.93,7.93,0,0,0-4.67,1.43,11.45,11.45,0,0,0-3.43,3.95l-.57-4.77H73.89v3.86l4.92.85V42.69l-4.92.85v3.83H89.68V43.54l-4.92-.85V23.84a7.16,7.16,0,0,1,2.48-3.11,6.78,6.78,0,0,1,4-1.11l3.38.18.79-5.56A7.84,7.84,0,0,0,94.23,14,10.09,10.09,0,0,0,92.79,13.91Z"/><path class="cls-1" d="M126.55,42.69V0H115.68V3.86l4.92.85V18.1A10.59,10.59,0,0,0,116.82,15a11.58,11.58,0,0,0-5.12-1.08,10.8,10.8,0,0,0-9.41,4.86q-3.37,4.86-3.37,12.78v.64q0,7.11,3.37,11.46A11.15,11.15,0,0,0,111.64,48,11.85,11.85,0,0,0,117,46.85a10.57,10.57,0,0,0,3.91-3.4l.48,3.92h10.09V43.54Zm-5.95-4.19a9.24,9.24,0,0,1-3,3.43,7.85,7.85,0,0,1-4.47,1.21,7,7,0,0,1-6.25-3,14,14,0,0,1-2-8v-.64a18.42,18.42,0,0,1,2-9.23,6.77,6.77,0,0,1,6.3-3.55A7.83,7.83,0,0,1,117.62,20a9.21,9.21,0,0,1,3,3.28Z"/><path class="cls-2" d="M154,13.91a11.42,11.42,0,0,0-10.3,5.71l-.45-5.1h-7.94v2.7l4.92.39V56.9l-4.92.39V60h13.44V57.3l-4.92-.39v-14A11.07,11.07,0,0,0,148,46.69,13.06,13.06,0,0,0,154,48a10.84,10.84,0,0,0,9.15-4.39q3.32-4.39,3.32-11.77v-.64q0-7.86-3.32-12.59A10.64,10.64,0,0,0,154,13.91Zm8.91,17.95q0,5.92-2.46,9.5a8.18,8.18,0,0,1-7.2,3.58,10.37,10.37,0,0,1-5.84-1.55,9.93,9.93,0,0,1-3.58-4.25V23.35a10.73,10.73,0,0,1,3.43-4.54,9.49,9.49,0,0,1,5.93-1.75A8,8,0,0,1,160.41,21a18.94,18.94,0,0,1,2.48,10.2Z"/><path class="cls-2" d="M186.83,13.91a13.08,13.08,0,0,0-10.48,4.65q-4,4.65-4,11.9v1q0,7.29,4,11.92a14.22,14.22,0,0,0,21,0q3.94-4.63,3.94-11.92v-1q0-7.26-4-11.9A13.11,13.11,0,0,0,186.83,13.91Zm10.84,17.55a15.71,15.71,0,0,1-2.87,9.6,10.09,10.09,0,0,1-15.91,0,15.71,15.71,0,0,1-2.87-9.6v-1a15.69,15.69,0,0,1,2.87-9.53,10,10,0,0,1,15.9,0,15.64,15.64,0,0,1,2.88,9.53Z"/><polygon class="cls-2" points="214.37 44.3 214.37 0 205.85 0 205.85 2.7 210.78 3.1 210.78 44.3 205.85 44.7 205.85 47.37 219.29 47.37 219.29 44.7 214.37 44.3"/><path class="cls-2" d="M54.73,12.38A18.57,18.57,0,1,0,73.19,30.95,18.52,18.52,0,0,0,54.73,12.38Zm0,27.64a9.07,9.07,0,1,1,9-9.07A9,9,0,0,1,54.73,40Z"/><path class="cls-1" d="M51.64,35.78s0,0,0,0a.18.18,0,0,1,0-.07l3.08-9.42s0-.07.06-.07,0,0,.06.07L58,35.59s0,.07,0,.08,0,0-.08,0l-3.18-3-3,3.11Z"/></svg>