<svg xmlns="http://www.w3.org/2000/svg" viewBox="0 0 48 48"><path d="M34.031 18.378c1.251-1.252 2.461-2.912.707-4.667l-.707-.707c-1.775-1.774-3.514-.446-4.667.707l-3.188 3.187c-.048.049-.086.104-.128.156L24.495 15.5a.813.813 0 0 0-1.148-.017l-1.414 1.414a.814.814 0 0 0 .017 1.149l1.115 1.114-8.98 8.98c-.724.723-1.097 1.943-.887 2.902a.768.768 0 0 1-.132.325l-.352.352c-.936.936-.956 2.439-.045 3.351.912.912 2.415.892 3.351-.044l.354-.354a.711.711 0 0 1 .356-.126c.926.205 2.147-.168 2.87-.891l8.981-8.98 1.114 1.114a.813.813 0 0 0 1.148.017l1.414-1.414a.812.812 0 0 0-.017-1.148l-1.553-1.554c.052-.042.107-.078.156-.127l3.188-3.185zM18.61 32.667c-.389.389-1.114.617-1.613.509-.498-.109-1.225.119-1.613.508l-.353.354c-.389.389-1.005.408-1.37.044-.364-.364-.344-.981.045-1.37l.354-.354c.389-.389.617-1.114.508-1.613-.109-.498.119-1.224.508-1.612l8.981-8.98 3.536 3.535-8.983 8.979z"/><path d="M15.206 29l-.132.132c-.389.389-.617 1.114-.508 1.612.109.499-.119 1.225-.508 1.613l-.354.354c-.389.389-.409 1.006-.045 1.37.365.364.981.345 1.37-.044l.353-.354c.389-.389 1.115-.617 1.613-.508.499.108 1.225-.12 1.613-.509L22.277 29h-7.071z" opacity=".3"/></svg>