<svg xmlns="http://www.w3.org/2000/svg" viewBox="0 0 80 80"><path fill="#8E8E8E" d="M37.5 32.7c.5 3.6-1.4 6.4-4.1 6.3-2.7-.1-5.3-3-5.8-6.6-.5-3.6 1.4-6.3 4.1-6.3 2.8.2 5.4 3.1 5.8 6.6zM33.1 46c-4.1 0-7.7 2.5-7.7 5.5 0 3.1 2.9 5.7 7 5.7 5.7 0 7.7-2.4 7.7-5.5 0-.4 0-.7-.1-1.1-.5-1.8-2-2.6-4.2-4.2-.9-.2-1.8-.3-2.7-.4zM76 40c0 19.9-16.1 36-36 36S4 59.9 4 40 20.1 4 40 4s36 16.1 36 36zM37.9 26.4h3.4l2.4-1.7H33.1c-4.7 0-9.2 3.6-9.2 7.8 0 4.2 3.2 7.7 8.1 7.7h1c-.3.6-.5 1.3-.5 2 0 1.2.6 2.1 1.4 2.9h-1.8c-5.9 0-10.4 3.7-10.4 7.6 0 3.8 5 6.2 10.8 6.2 6.7 0 10.4-3.8 10.4-7.6 0-3.1-.9-4.9-3.7-6.9-1-.7-2.8-2.3-2.8-3.3 0-1.1.3-1.7 2-3 1.8-1.4 3-3.3 3-5.5-.1-2.7-1.2-5.3-3.5-6.2zM62 32.2h-7.6v-7.5h-2.5v7.5h-7.6v2.5h7.6v7.7h2.5v-7.7H62v-2.5z"/></svg>