<svg xmlns="http://www.w3.org/2000/svg" viewBox="0 0 80 80"><g fill="#8E8E8E"><path d="M42.1 21H30.3c-5.3 0-10.2 4-10.2 8.6 0 4.7 3.6 8.6 9 8.6h1.1c-.3.7-.6 1.4-.6 2.2 0 1.3.7 2.4 1.6 3.3h-2c-6.5 0-11.6 4.2-11.6 8.5s5.5 6.9 12.1 6.9c7.4 0 11.6-4.2 11.6-8.5 0-3.4-1-5.5-4.1-7.6-1.1-.8-3.1-2.6-3.1-3.7 0-1.3.4-1.9 2.3-3.4s3.3-3.7 3.3-6.2c0-3-1.3-5.8-3.8-6.8h3.7l2.5-1.9zM38 49.8c.1.4.1.8.1 1.2 0 3.4-2.2 6.1-8.6 6.1-4.5 0-7.8-2.9-7.8-6.3s4-6.2 8.6-6.1c1.1 0 2 .2 2.9.5 2.5 1.7 4.3 2.7 4.8 4.6zM30.7 37c-3-.1-5.9-3.4-6.4-7.4s1.5-7 4.5-6.9c3 .1 5.9 3.3 6.4 7.3.6 3.9-1.5 7.1-4.5 7zM54 29.3V21h-2.7v8.3h-8.5v2.8h8.5v8.6H54v-8.6h8.5v-2.8z"/></g></svg>