<svg xmlns="http://www.w3.org/2000/svg" viewBox="0 0 800 800"><defs><style>.cls-1{fill:none}.cls-2{fill:#84c9e7}</style></defs><title>ws-icon</title><path class="cls-1" d="M50 50.01h700v699.98H50z" id="Ebene_1" data-name="Ebene 1"/><g id="Ebene_2" data-name="Ebene 2"><path class="cls-2" d="M413.47 347.38a284.41 284.41 0 0 0 12.31-27.28c4.45-11.74 8-29.42 3.19-44.54s-13.73-22.31-22.28-22.31c-14.19 0-13.49 14.15-12.48 31 1.53 25.15 17.21 58.7 19.26 63.13zM221.73 302.99l98.59 243.78 11.78-31.15-93.42-212.63h-16.95z"/><path class="cls-2" d="M400 25C192.9 25 25 192.9 25 400s167.9 375 375 375 375-167.9 375-375S607.1 25 400 25zm248.88 278h-51.06l-119 290.13-80.12-173.89-78 175.88L201.64 303h-50.49v-20h137.7v20h-37.52l90.45 196.75 46.46-99.43c-10.15-20.44-17.88-37.27-21.55-47.9a157.38 157.38 0 0 1-8.62-51.81c0-12.49 2.12-20.16 4-27.46l-65.41 56.23 64.2-74.38-64.21-74.38 74.54 64.07 74.54-64.07-49.81 57.7a52.43 52.43 0 0 1 11.38-1.18c7 0 12.92 1.84 17.86 5.55a44.45 44.45 0 0 1 12.92 13.93 52.51 52.51 0 0 1 8 17.27 56.53 56.53 0 0 1 3.09 17.27 93.2 93.2 0 0 1-8.62 39q-8.63 18.94-17.25 36.77l70.33 133.56 78-197.45H528V283h120.88z"/><path class="cls-2" d="M403.53 360.7q-9.25-18.94-17.25-38.43c-4.91-13.38-8.51-22-9.74-36.13 0 0-2.5 11.29-2.5 19.75a140.17 140.17 0 0 0 6.76 42.89 295.48 295.48 0 0 0 17.86 40.09l76.22 156.83 9-26-33-65.46Q426.91 408 403.53 360.7z"/></g></svg>