<svg id="Ebene_1" xmlns="http://www.w3.org/2000/svg" viewBox="0 0 440 110"><style>.st0{fill:#fff}</style><ellipse cx="55" cy="55" rx="50" ry="50"/><path class="st0" d="M82.5 39.4H72.1v2.7h5.8l-.2.6-10.2 25.7-9.4-17.8c.8-1.6 1.5-3.2 2.3-4.9.8-1.7 1.1-3.4 1.1-5.2 0-.7-.1-1.5-.4-2.3-.2-.8-.6-1.6-1.1-2.3-.4-.7-1-1.4-1.7-1.9s-1.5-.7-2.4-.7c-.6 0-1.1.1-1.5.2l6.6-7.7-9.9 8.5-9.9-8.5 8.6 9.9-8.6 9.9 8.8-7.5c-.1.3-.2.5-.2.8-.2 1-.3 2-.3 2.9 0 2.4.4 4.7 1.1 6.9.8 2.2 1.8 4.3 2.9 6.4l-6.2 13.3-12.1-26.3h5v-2.7H21.9v2.7h6.7l15.9 39 10.4-23.5 10.7 23.2 15.9-38.7h6.8v-2.7h-5.8zM44.4 74.6L31.2 42.1h2.3L46 70.4l-1.6 4.2zm10-38.2c.2-.6.7-1 1.5-1 .5 0 1 .2 1.5.6.4.3.8.8 1 1.3.3.5.5 1 .6 1.6.2.6.2 1.1.2 1.5 0 1.3-.2 2.6-.7 3.9-.5 1.2-1 2.4-1.6 3.6-.3-.6-.6-1.3-.9-2.2l-.9-2.7c-.2-.9-.4-1.9-.6-2.7-.1-.4-.1-.7-.2-1V39c0-.3-.1-.7-.1-1 0-.4.1-1 .2-1.6zm10.6 38L54.8 53.5c-.9-1.7-1.7-3.5-2.4-5.3-.6-1.9-.9-3.8-.9-5.7 0-.3.2-1.3.2-1.6l.2-1c.2 1.9.6 3 1.3 4.8.7 1.7 1.5 3.4 2.3 5.1 2.1 4.2 4.2 8.4 6.3 12.5l4.4 8.7-1.2 3.4z"/><path transform="rotate(-45.017 140.176 8.333)" d="M138.7 6.9h2.9v2.9h-2.9z"/><path transform="rotate(-44.988 140.158 14.999)" d="M138.7 13.5h2.9v2.9h-2.9z"/><path transform="rotate(-45.001 140.172 21.668)" d="M138.7 20.2h2.9v2.9h-2.9z"/><path transform="rotate(-45.017 140.176 28.334)" d="M138.7 26.9h2.9v2.9h-2.9z"/><path transform="rotate(-45.001 140.178 35)" d="M138.7 33.5h2.9v2.9h-2.9z"/><path transform="rotate(-45.009 140.158 41.67)" d="M138.7 40.2h2.9v2.9h-2.9z"/><path transform="rotate(-44.984 140.174 48.334)" d="M138.7 46.9h2.9v2.9h-2.9z"/><path transform="rotate(-45.001 140.178 55.002)" d="M138.7 53.5h2.9v2.9h-2.9z"/><path transform="rotate(-45.017 140.176 61.67)" d="M138.7 60.2h2.9v2.9h-2.9z"/><path transform="rotate(-44.988 140.158 68.328)" d="M138.7 66.9h2.9v2.9h-2.9z"/><path transform="rotate(-45.001 140.172 75.002)" d="M138.7 73.5h2.9v2.9h-2.9z"/><path transform="rotate(-45.017 140.177 81.67)" d="M138.7 80.2h2.9v2.9h-2.9z"/><path transform="rotate(-44.988 140.158 88.327)" d="M138.7 86.9h2.9v2.9h-2.9z"/><path transform="rotate(-44.988 140.158 94.993)" d="M138.7 93.5h2.9v2.9h-2.9z"/><path transform="rotate(-44.988 140.158 101.66)" d="M138.7 100.2h2.9v2.9h-2.9z"/><path d="M435 67.5v-25c0-.3-.1-.4-.4-.4h-3.9c-.3 0-.4.1-.4.4v5.2c0 3.2.2 9.1.2 10.1h-.2c-.1-.3-.7-1.8-.9-2.1l-7.3-13.5c-.1-.1-.2-.2-.4-.2h-3.4c-.3 0-.4.1-.4.4v25c0 .3.1.4.4.4h3.9c.3 0 .4-.1.4-.4v-5.1c0-3.2-.2-9.1-.2-10.1h.2c.1.3.7 1.8.9 2.1l7.3 13.4c.1.1.2.2.4.2h3.4c.3 0 .4-.1.4-.4m-28.2 0v-25c0-.3-.1-.4-.4-.4h-3.9c-.3 0-.4.1-.4.4v25c0 .3.1.4.4.4h3.9c.3 0 .4-.1.4-.4m-15.2 0V64c0-.3-.1-.4-.4-.4h-9.8c-.3 0-.4-.1-.4-.4v-5.8c0-.3.1-.4.4-.4h8c.3 0 .4-.1.4-.4v-3.5c0-.3-.1-.4-.4-.4h-8c-.3 0-.4-.1-.4-.4v-5.5c0-.3.1-.4.4-.4h9.8c.3 0 .4-.1.4-.4v-3.5c0-.3-.1-.4-.4-.4h-14.5c-.3 0-.4.1-.4.4v25c0 .3.1.4.4.4h14.5c.3 0 .4-.1.4-.4M366.8 46v-3.5c0-.3-.1-.4-.4-.4H352c-.3 0-.4.1-.4.4V46c0 .3.1.4.4.4h4.5c.3 0 .4.1.4.4v20.7c0 .3.1.4.4.4h3.9c.3 0 .4-.1.4-.4V46.8c0-.3.1-.4.4-.4h4.5c.2 0 .3-.1.3-.4m-23.5 15.1c0-5-3.3-6.9-6.4-8.3-2.4-1.1-4.8-1.7-4.8-3.8 0-1.6 1.4-3 3-3h.7c1.1 0 2.2.7 2.9 2.4.1.2.2.3.3.3.2 0 .3-.1.5-.2l3.3-1.7c.2-.1.2-.2.2-.3 0-.2-.4-.9-.8-1.5-1.2-1.9-3.1-3.3-6.5-3.3h-.7c-4.7 0-7.6 3-7.6 7.3 0 4.8 3.6 6.5 6.8 8.1 2.2 1 4.4 1.8 4.4 4.1 0 1.6-1.4 3-3 3H334c-1.1 0-2.2-.7-2.9-2.4-.1-.2-.2-.3-.3-.3-.2 0-.3.1-.5.2l-3.3 1.7c-.2.1-.2.2-.2.3 0 .2.4.9.8 1.5 1.2 1.9 3.1 3.3 6.5 3.3h1.6c4.7-.2 7.6-3.2 7.6-7.4m-23.1 6.4V64c0-.3-.1-.4-.4-.4H310c-.3 0-.4-.1-.4-.4V42.5c0-.3-.1-.4-.4-.4h-3.9c-.3 0-.4.1-.4.4v25c0 .3.1.4.4.4h14.5c.2 0 .4-.1.4-.4m-25.8 0V64c0-.3-.1-.4-.4-.4h-9.8c-.3 0-.4-.1-.4-.4v-5.8c0-.3.1-.4.4-.4h8c.3 0 .4-.1.4-.4v-3.5c0-.3-.1-.4-.4-.4h-8c-.3 0-.4-.1-.4-.4v-5.5c0-.3.1-.4.4-.4h9.8c.3 0 .4-.1.4-.4v-3.5c0-.3-.1-.4-.4-.4h-14.5c-.3 0-.4.1-.4.4v25c0 .3.1.4.4.4H294c.3 0 .4-.1.4-.4m-25.5-21c0-.2-.4-.9-.8-1.5-1.2-1.9-3.1-3.3-6.5-3.3h-2.7c-4.7 0-7.6 3-7.6 7.3v12.1c0 4.3 3 7.3 7.6 7.3h2c4.6 0 7.6-3 7.6-7.3v-6.2c0-.3-.1-.4-.4-.4h-8.6c-.3 0-.4.1-.4.4v3.5c0 .3.1.4.4.4h3.9c.3 0 .4.1.4.4v1.9c0 1.6-1.3 3-2.9 3h-2c-1.6 0-3-1.4-3-3V48.9c0-1.6 1.4-3 3-3h2.7c1.1 0 2.2.7 2.9 2.4.1.2.2.3.3.3.2 0 .3-.1.5-.2l3.3-1.7c.2 0 .3-.1.3-.2m-28.4 21v-25c0-.3-.1-.4-.4-.4h-3.9c-.3 0-.4.1-.4.4v25c0 .3.1.4.4.4h3.9c.2 0 .4-.1.4-.4m-15.2 0V64c0-.3-.1-.4-.4-.4h-9.8c-.3 0-.4-.1-.4-.4v-5.8c0-.3.1-.4.4-.4h8c.3 0 .4-.1.4-.4v-3.5c0-.3-.1-.4-.4-.4h-8c-.3 0-.4-.1-.4-.4v-5.5c0-.3.1-.4.4-.4h9.8c.3 0 .4-.1.4-.4v-3.5c0-.3-.1-.4-.4-.4h-14.5c-.3 0-.4.1-.4.4v25c0 .3.1.4.4.4h14.5c.3 0 .4-.1.4-.4m-24.4-25.1c0-.2-.1-.3-.4-.3h-4.2c-.2 0-.4.1-.4.3l-2.4 12.7c-.1.4-.3 2.2-.4 2.5h-.2c-.1-.3-.5-2.2-.5-2.5L189 42.3c0-.2-.2-.3-.4-.3h-2.1c-.2 0-.4.1-.4.3l-3.4 12.8c-.1.3-.5 2.2-.5 2.5h-.2c-.1-.3-.4-2.3-.4-2.5l-2.4-12.7c0-.2-.2-.3-.4-.3h-4.2c-.3 0-.4.1-.4.3 0 .2.1.7.2 1.1l5.2 24.1c0 .2.2.3.4.3h3c.2 0 .4-.1.4-.3l3.6-12.4c.1-.3.4-1.9.5-2.3h.1c.1.3.4 2 .5 2.3l3.6 12.4c0 .2.2.3.4.3h3c.2 0 .4-.1.4-.3l5.2-24.1c.1-.4.2-.9.2-1.1"/></svg>